<svg x="0" y="0" width="48" height="48" version="1.1" xmlns="http://www.w3.org/2000/svg" xmlns:xlink="http://www.w3.org/1999/xlink"><defs><linearGradient x1="11.77523" y1="11.68966" x2="54.96309" y2="55.04867" gradientUnits="userSpaceOnUse" id="color-1"><stop offset="0" stop-color="#000000" stop-opacity="0.7"></stop><stop offset="1" stop-color="#000000" stop-opacity="0"></stop></linearGradient><filter id="dropshadow"><feColorMatrix type="matrix" values="0 0 0 0 .05  0 0 0 0 .15  0 0 0 0 .1  0 0 0 .8 0"></feColorMatrix> <feOffset dx="0" dy="1"></feOffset> <feGaussianBlur stdDeviation="1"></feGaussianBlur> <feComposite in="SourceGraphic"></feComposite></filter></defs><g fill="none" stroke="none" stroke-width="none" stroke-linecap="butt" stroke-linejoin="miter" stroke-miterlimit="none" stroke-dasharray="" stroke-dashoffset="0" font-family="none" font-weight="normal" font-size="none" text-anchor="start" mix-blend-mode="normal"><g fill="#000000" stroke="none" stroke-width="1" stroke-miterlimit="4" font-family="&quot;Open Sans&quot;, sans-serif" font-size="14"></g><path d="M3,24c0,-11.59798 9.40202,-21 21,-21c11.59798,0 21,9.40202 21,21c0,11.59798 -9.40202,21 -21,21c-11.59798,0 -21,-9.40202 -21,-21z" fill="#2da874" stroke-width="1" stroke-miterlimit="10" font-family="sans-serif" font-size="12" filter="url(#dropshadow)"></path><path d="M14.62139,19.54797c0,0 -1.27527,-1.27527 -1.27527,-1.27527l-1.57083,-1.87033l-0.00006,-0.00006l5.61728,-4.71265l0.00006,0.00006l-0.00005,-0.00006l3.16347,3.16347c1.08119,-0.35521 2.23677,-0.54737 3.43789,-0.54737c0,0 0.00001,0 0.00001,0c3.04168,0 5.79439,1.23227 7.78638,3.22426l0.00883,0.00883c-0.00294,-0.00295 -0.00588,-0.00589 -0.00882,-0.00883c0,0 12.3774,12.3774 12.3774,12.3774c-2.20627,7.54077 -8.52896,13.3239 -16.37072,14.75202l-11.56736,-11.56736c-1.99146,-1.99146 -3.2219,-4.74389 -3.2219,-7.78404c0,-2.11171 0.59367,-4.08461 1.62368,-5.76008z M44.41465,28.94421c0,0 -15.37805,-15.37805 -15.37805,-15.37805l0.00006,0.00005l-0.00005,-0.00005l1.57088,-1.87038l-0.00001,-0.00001l0.00001,0l0,0l0.00005,0.00005l5.61722,4.7126l8.74415,8.74415c-0.07025,1.29877 -0.25851,2.56617 -0.55425,3.79165z" fill="url(#color-1)" stroke-width="1" stroke-miterlimit="10" font-family="sans-serif" font-size="12"></path><path d="M35.00229,25.30805c0,6.07571 -4.92658,11.00229 -11.0084,11.00229c-6.08182,0 -10.99618,-4.92658 -10.99618,-11.00229c0,-6.07571 4.91436,-11.00229 10.99618,-11.00229c6.08182,0 11.0084,4.92658 11.0084,11.00229z M32.55734,25.30805c0,-4.72487 -3.83246,-8.55734 -8.55734,-8.55734c-4.72487,0 -8.55734,3.83246 -8.55734,8.55734c0,4.72487 3.83246,8.55734 8.55734,8.55734c4.73098,0 8.55734,-3.83246 8.55734,-8.55734z M24.61124,25.61367l4.88991,2.89727l-0.92297,1.50976l-5.80065,-3.49017l0,-7.33486l1.83371,0z M34.65388,18.27881l-5.61728,-4.71265l1.57088,-1.87039l5.61728,4.71265z M13.34612,18.2727l-1.57088,-1.87039l5.61728,-4.71265l1.57088,1.87039z" fill="#ffffff" stroke="none" stroke-width="0" stroke-miterlimit="4" font-family="&quot;Open Sans&quot;, sans-serif" font-size="14"></path></g></svg>